<svg width="30" height="30" viewBox="0 0 30 30" fill="none" xmlns="http://www.w3.org/2000/svg">
<path d="M30 15.0905C29.9987 7.06201 23.7511 0.439713 15.783 0.0208759C7.81492 -0.397961 0.915561 5.53327 0.0829359 13.5179C-0.749689 21.5025 4.77589 28.7456 12.6569 30V19.4532H8.84886V15.0905H12.6569V11.7654C12.6569 7.98284 14.8965 5.89347 18.322 5.89347C19.4469 5.90916 20.5693 6.00753 21.68 6.18777V9.90242H19.7882C19.1351 9.81515 18.4781 10.0315 18.0027 10.4902C17.5272 10.949 17.2849 11.6005 17.3442 12.2606V15.0905H21.5047L20.8391 19.4532H17.3442V30C24.6336 28.8397 30.0012 22.5163 30 15.0905Z" fill="white"/>
</svg>
