<svg width="30" height="30" viewBox="0 0 30 30" fill="none" xmlns="http://www.w3.org/2000/svg">
<path fill-rule="evenodd" clip-rule="evenodd" d="M8.81563 0.0899963C10.4156 0.0175018 10.9263 0 15 0C19.0738 0 19.5844 0.0175018 21.1844 0.0899963C23.6231 0.201248 25.7638 0.798752 27.4825 2.5175C29.2019 4.23688 29.7987 6.37813 29.91 8.81563C29.9825 10.4156 30 10.9263 30 15C30 19.0737 29.9825 19.5844 29.91 21.1844C29.7987 23.6231 29.2013 25.7637 27.4825 27.4825C25.7631 29.2019 23.6213 29.7988 21.1844 29.91C19.5844 29.9825 19.0738 30 15 30C10.9263 30 10.4156 29.9825 8.81563 29.91C6.37687 29.7988 4.23625 29.2012 2.5175 27.4825C0.798125 25.7631 0.20125 23.6219 0.09 21.1844C0.0175 19.5844 0 19.0737 0 15C0 10.9263 0.0175 10.4156 0.09 8.81563C0.20125 6.37688 0.79875 4.23625 2.5175 2.5175C4.23688 0.798126 6.37813 0.201248 8.81563 0.0899963ZM21.0614 2.79024C19.4795 2.71774 19.0051 2.70274 15.0001 2.70274C10.9951 2.70274 10.5208 2.71837 8.93889 2.79024C7.23202 2.86836 5.64764 3.21025 4.42889 4.429C3.21014 5.64775 2.86827 7.23212 2.79014 8.939C2.71764 10.5209 2.70264 10.9952 2.70264 15.0002C2.70264 19.0052 2.71827 19.4796 2.79014 21.0615C2.86827 22.7684 3.21014 24.3528 4.42889 25.5715C5.64764 26.7903 7.23202 27.1321 8.93889 27.2103C10.5201 27.2827 10.9945 27.2977 15.0001 27.2977C19.0058 27.2977 19.4801 27.2821 21.0614 27.2103C22.7683 27.1321 24.3526 26.7903 25.5714 25.5715C26.7901 24.3528 27.132 22.7684 27.2101 21.0615C27.2826 19.4796 27.2976 19.0052 27.2976 15.0002C27.2976 10.9952 27.282 10.5209 27.2101 8.939C27.132 7.23212 26.7901 5.64775 25.5714 4.429C24.3526 3.21025 22.7683 2.86836 21.0614 2.79024Z" fill="white"/>
<path fill-rule="evenodd" clip-rule="evenodd" d="M8.18188 15.6821C8.18188 11.5402 11.5394 8.18213 15.6819 8.18213C19.8244 8.18213 23.1819 11.5396 23.1819 15.6821C23.1819 19.8247 19.8244 23.1821 15.6819 23.1821C11.5394 23.1821 8.18188 19.8241 8.18188 15.6821ZM10.8134 15.6818C10.8134 18.3704 12.9933 20.5503 15.682 20.5503C18.3706 20.5503 20.5505 18.3704 20.5505 15.6818C20.5505 12.9931 18.3706 10.8132 15.682 10.8132C12.9933 10.8132 10.8134 12.9931 10.8134 15.6818Z" fill="white"/>
<circle cx="22.5" cy="7.50004" r="2.04545" fill="white"/>
</svg>
