<svg width="30" height="30" viewBox="0 0 30 30" fill="none" xmlns="http://www.w3.org/2000/svg">
<path fill-rule="evenodd" clip-rule="evenodd" d="M15 0C23.2843 0 30 6.71573 30 15C30 23.2843 23.2843 30 15 30C6.71573 30 0 23.2843 0 15C0 6.71573 6.71573 0 15 0ZM15.4683 10.8319C14.0129 11.45 11.1042 12.7293 6.74213 14.6697C6.03377 14.9573 5.66272 15.2387 5.62894 15.5138C5.57187 15.9787 6.14197 16.1617 6.91834 16.411C7.02407 16.4449 7.13363 16.4801 7.24594 16.5174C8.00994 16.771 9.03763 17.0676 9.57188 17.0793C10.0565 17.09 10.5974 16.8861 11.1946 16.4674C15.2702 13.6584 17.3741 12.2386 17.5061 12.208C17.5993 12.1864 17.7284 12.1593 17.8159 12.2387C17.9034 12.318 17.8948 12.4684 17.8856 12.5088C17.8291 12.7547 15.5904 14.8796 14.4321 15.9792C14.071 16.3219 13.8149 16.565 13.7626 16.6205C13.6453 16.7449 13.5257 16.8626 13.4108 16.9757C12.701 17.6743 12.1688 18.1982 13.4403 19.0537C14.0513 19.4648 14.5403 19.8048 15.0281 20.144C15.5608 20.5144 16.0921 20.8838 16.7796 21.3439C16.9546 21.4611 17.1219 21.5828 17.2847 21.7014C17.9047 22.1527 18.4618 22.5582 19.1499 22.4935C19.5498 22.456 19.9628 22.0721 20.1725 20.9272C20.6683 18.2215 21.6426 12.3591 21.8678 9.94335C21.8875 9.73172 21.8627 9.46085 21.8428 9.34191C21.8228 9.22304 21.7812 9.0536 21.6298 8.92816C21.4505 8.77966 21.1738 8.74835 21.05 8.75047C20.4872 8.76066 19.6237 9.06722 15.4683 10.8319Z" fill="white"/>
</svg>
